<svg width="1100" height="1200" viewBox="0 0 1100 1200" fill="none" xmlns="http://www.w3.org/2000/svg">
<defs>
  <linearGradient id="bg" x1="160" y1="80" x2="930" y2="1120" gradientUnits="userSpaceOnUse"><stop stop-color="#FFF7ED"/><stop offset="1" stop-color="#F8DFC2"/></linearGradient>
  <linearGradient id="card" x1="190" y1="160" x2="840" y2="1040" gradientUnits="userSpaceOnUse"><stop stop-color="#FFFFFF"/><stop offset="1" stop-color="#FFF3E6"/></linearGradient>
  <filter id="s" x="0" y="0" width="1100" height="1200" filterUnits="userSpaceOnUse"><feDropShadow dx="0" dy="24" stdDeviation="28" flood-color="#7B2B22" flood-opacity="0.16"/></filter>
</defs>
<rect width="1100" height="1200" rx="72" fill="url(#bg)"/>
<circle cx="930" cy="160" r="126" fill="#F2C98C" fill-opacity="0.55"/>
<circle cx="180" cy="1030" r="146" fill="#B5121B" fill-opacity="0.12"/>
<g filter="url(#s)">
  <rect x="132" y="128" width="836" height="936" rx="58" fill="url(#card)"/>
</g>
<rect x="198" y="206" width="704" height="110" rx="30" fill="#FFF" stroke="#E7C9BA"/>
<circle cx="258" cy="261" r="34" fill="#B5121B" fill-opacity="0.12"/>
<path d="M246 273C246 253 270 247 270 229C287 241 291 264 270 279" stroke="#B5121B" stroke-width="8" stroke-linecap="round" stroke-linejoin="round"/>
<text x="316" y="254" fill="#7E0D14" font-family="Georgia, serif" font-size="42" font-weight="700">Ordini e prenotazioni</text>
<text x="316" y="292" fill="#775B53" font-family="Arial, sans-serif" font-size="22">Colazioni · Gelati · Dolci · Stuzzicheria</text>
<rect x="198" y="362" width="704" height="196" rx="36" fill="#FFF8F0" stroke="#E7C9BA"/>
<text x="232" y="416" fill="#B5121B" font-family="Arial, sans-serif" font-size="18" font-weight="700" letter-spacing="4">SHOP</text>
<text x="232" y="468" fill="#2C1717" font-family="Georgia, serif" font-size="50" font-weight="700">Aggiungi al carrello</text>
<rect x="232" y="494" width="214" height="38" rx="19" fill="#B5121B"/>
<text x="263" y="520" fill="#FFF" font-family="Arial, sans-serif" font-size="18" font-weight="700">Prenota subito</text>
<rect x="472" y="494" width="196" height="38" rx="19" fill="#FFF" stroke="#D6B4A6"/>
<text x="514" y="520" fill="#7E0D14" font-family="Arial, sans-serif" font-size="18" font-weight="700">WhatsApp</text>
<rect x="198" y="602" width="332" height="170" rx="32" fill="#FFF" stroke="#E7C9BA"/>
<rect x="570" y="602" width="332" height="170" rx="32" fill="#FFF" stroke="#E7C9BA"/>
<text x="232" y="648" fill="#B5121B" font-family="Arial, sans-serif" font-size="18" font-weight="700">COLAZIONI</text>
<text x="232" y="696" fill="#2C1717" font-family="Georgia, serif" font-size="40" font-weight="700">07:00–10:00</text>
<text x="232" y="728" fill="#775B53" font-family="Arial, sans-serif" font-size="20">Ordine minimo €5</text>
<text x="604" y="648" fill="#B5121B" font-family="Arial, sans-serif" font-size="18" font-weight="700">GELATERIA</text>
<text x="604" y="696" fill="#2C1717" font-family="Georgia, serif" font-size="40" font-weight="700">0,5 · 1 · 1,5 kg</text>
<text x="604" y="728" fill="#775B53" font-family="Arial, sans-serif" font-size="20">Vaschette da prenotare</text>
<rect x="198" y="812" width="704" height="190" rx="36" fill="#FFF" stroke="#E7C9BA"/>
<circle cx="274" cy="908" r="48" fill="#FFF1E2" stroke="#E7C9BA"/>
<path d="M252 916C252 892 276 872 304 872C332 872 356 892 356 916" stroke="#B5121B" stroke-width="12" stroke-linecap="round"/>
<path d="M252 920H356" stroke="#B5121B" stroke-width="12" stroke-linecap="round"/>
<text x="356" y="884" fill="#7E0D14" font-family="Georgia, serif" font-size="42" font-weight="700">Esperienza premium</text>
<text x="356" y="926" fill="#775B53" font-family="Arial, sans-serif" font-size="22">Navigation fluida e richieste già organizzate</text>
</svg>